<svg height="199" viewBox="0 0 687 199" width="687" xmlns="http://www.w3.org/2000/svg"><path d="m229.8 175.675c1.7-1 3.7-1 5.4 0l31.1 18-14.1 8.1-16.9-9.8c-1.7-1-3.9-1-5.6.1h-.1l-38.6 22.3v22.9l-14 8.3v-39.3zm78.9 87.5-117.5 67.8-23.1-13.3h-.1v-116.4l61.7-35.6h.1c1.7-1 3.8-1 5.4 0l40.4 23.3c2.6 1.5 3.5 4.8 2 7.4-.5.9-1.3 1.6-2.2 2.1l-98.4 56.9v57.4l14.2 8.2 116.9-67.6.7-.4c-1.5-6.6-5.8-12.2-11.8-15.3l-21.9-12.6-14.1 8.2 18.7 10.9c2.6 1.5 3.5 4.8 2 7.4-.5.8-1.2 1.5-2 2l-88.6 51.1h-.1v-38c0-1.9 1.1-3.7 2.8-4.7l96.9-56c6.8-3.9 9.1-12.5 5.2-19.3-1.2-2.2-3-4-5.2-5.2l-55.5-32.1c-.8-.5-1.7-.7-2.7-.7s-1.9.2-2.8.7l-75.7 43.7v132.8l34.3 19.7c1.7 1 3.8 1 5.5 0l100.4-58c4.2-2.4 7.5-6.1 9.5-10.5 2-4.5 3.7-9.2 5-13.9zm81.3-67.7v27.8c7.3-1.5 14.7-2.2 22.1-2.1 13.1 0 23 3.6 30 10.8s10.4 17.1 10.4 29.8c0 13-3.5 23.2-10.5 30.6-6.9 7.4-15.8 11.1-27 11.1-14.7 0-29.4-1.1-44-3.1v-112.2c0-.7.3-1.4.9-1.8.7-.4 1.5-.4 2.2 0zm19.6 41.6c-6.6 0-13.2.7-19.6 2.2v47.1c6.9 1 13.8 1.5 20.7 1.6 7.6 0 13.2-2.3 17.3-6.9s6.1-11 6.1-19.3c0-16.5-8.2-24.7-24.5-24.7zm100.8-17c12.9 0 23.4 3.9 31.4 11.6s12.1 17.8 12.1 30.2c0 12.8-4 23.1-12.1 30.8-8.1 7.8-18.6 11.7-31.4 11.7-12.9 0-23.4-3.9-31.6-11.7-8-7.7-12.1-18-12.1-30.8 0-12.4 4-22.5 12.1-30.2 8.1-7.8 18.6-11.6 31.6-11.6zm0 67c7.2 0 13.1-2.3 17.5-7s6.7-10.8 6.7-18.3c0-7.3-2.2-13.3-6.7-17.8-4.4-4.5-10.3-6.8-17.5-6.8-7.3 0-13.3 2.3-17.8 6.8s-6.8 10.4-6.8 17.7c0 7.6 2.2 13.7 6.8 18.3 4.6 4.7 10.5 7.1 17.8 7.1zm78.6-100.7c.6-.4 1.4-.4 2 0s1 1.1 1 1.8v113.4h-19v-103.7c.1-1.5.9-2.9 2.2-3.6zm48 66.2h6.5l26.5-28c.8-.7 1.9-1.1 3-1h16.6c1.1 0 2.1.9 2.1 2.1 0 .5-.2 1-.6 1.4l-27.7 29.7 33.6 44.8h-22.3l-22.5-29.2c-.8-1.1-2-1.7-3.3-1.8h-11.9v31h-19v-113.4c0-1.2 1-2.1 2.2-2.1.4 0 .7.1 1 .3l13.7 7.9c1.3.7 2.1 2.1 2.1 3.6zm104.6-31.6c11.1 0 20.2 3.2 27.2 9.5 7.1 6.3 10.7 14.6 10.8 24.9 0 3.5-.2 7.1-.6 10.6-.3 2.1-2 3.7-4.2 3.6h-54c1.1 5.2 4.2 9.8 8.6 12.8 4.3 3.1 9.6 4.6 16.1 4.6 5.5 0 14.9-1.4 28-4.2l2.7 15.4c-12.7 3.9-23 5.8-31.1 5.8-14.3 0-25.3-3.9-33-11.6s-11.6-17.7-11.5-29.9c0-12.6 3.8-22.6 11.5-30.1 7.7-7.6 17.5-11.4 29.5-11.4zm.3 15c-5.3-.1-10.5 1.8-14.5 5.4-3.9 3.5-6.3 8.3-7.2 14.3h42.3c-.2-6-2.2-10.6-6-14.2-3.9-3.7-9.2-5.7-14.6-5.5zm62.1 32.9v-34.2h-13v-13.7c.2-1.3 1.3-2.2 2.5-2.3h9.3c.4 0 1.2-.1 1.2-.6v-20.2c-.1-1.5.7-2.9 1.9-3.6l13.3-7.7c.6-.4 1.3-.4 1.9 0s.9 1.1.9 1.8v29.7c0 .4.6.6 1 .6h18v16h-19v30.1l15.9 36.9h-20.1z" transform="translate(-154 -148)"/></svg>