<svg viewBox="0 0 286.8 247.71" xmlns="http://www.w3.org/2000/svg"><g stroke-linecap="round" stroke-linejoin="round"><path d="m207.03 169.59-146.32-1v-121.91l146.32 1z" stroke="#fff" stroke-width="6"/><path d="m243.58 125.91-121.91-1v-121.91l121.91 1z" fill="none" stroke="#fff" stroke-width="6"/><g stroke-width="8"><path d="m121.67 124.91 85.36.7v-77.93l-85.36-.59z" fill="#fff" stroke="#fff"/><path d="m207 84.85 38.52 66.71 36 62.31a9.29 9.29 0 0 1 -1.52 11.36c-6.77 6.44-24.82 15-73 15s-66.19-8.6-73-15a9.29 9.29 0 0 1 -1.53-11.36l36-62.31z" stroke="#fff"/><path d="m119.69 185.87a57.85 57.85 0 0 1 -115.69 0c0-32 25.9-90.41 57.84-90.41 14.24 0 27.28 11.61 37.36 27.32 12.53 19.53 20.49 45.38 20.49 63.09z" fill="#fff" stroke="#000"/><path d="m6.52 166 27.99-15.88 34.31 19.47 24.59-9.74" fill="#fff" stroke="#000"/><path d="m76.58 136.53-26.61 22.36" fill="#fff" stroke="#000"/><path d="m98.73 230.43-22.15-18.82-31.06-4.53" fill="#fff" stroke="#000"/></g></g></svg>