<svg xmlns="http://www.w3.org/2000/svg" viewBox="0 0 228.84 296.86"><defs><style>.cls-1{fill:#fff}.cls-2{fill:none}.cls-2,.cls-4{stroke:#fff;stroke-linejoin:round;stroke-width:4px}.cls-2,.cls-3,.cls-4{stroke-linecap:round}.cls-3{stroke:#000;stroke-miterlimit:10;stroke-width:5px}</style></defs><title>cosa_1</title><g id="Livello_2" data-name="Livello 2"><g id="Livello_1-2" data-name="Livello 1"><circle class="cls-1" cx="121.43" cy="149.43" r="64.91"/><circle class="cls-2" cx="121.43" cy="149.43" r="102.65"/><path class="cls-3" d="M134.97 134.05L124.86 134.05 115.7 148.37 122.39 148.37 115.7 158.83 134.97 144.51 128.29 144.51 134.97 134.05z"/><path class="cls-4" d="M85.45 61.8a24.49 24.49 0 0 0 3.84 2.5 51.12 51.12 0 0 1 5.43 3.84 10.31 10.31 0 0 1 2.75 4 18.86 18.86 0 0 1 1 6.84v30.57c0 4.35 1.26 7.46 3.76 9.36s6.72 2.83 12.62 2.83H146V2h-31.15Q106 2 102.23 4.84t-3.76 9.35v30.74c0 4-.66 6.9-2 8.68s-3.73 3.68-7.18 5.68z"/><path class="cls-2" d="M145.96 28.9L58.77 28.9"/><path class="cls-4" d="M154.7 237.33l-.14.09a50.44 50.44 0 0 0-5.36 3.79 10.18 10.18 0 0 0-2.76 4 19 19 0 0 0-1 6.85v30.57q0 6.51-3.76 9.36T129 294.85h-28.3a2.79 2.79 0 0 1-2.79-2.79V177.88a2.79 2.79 0 0 1 2.79-2.79H129q8.85 0 12.61 2.84t3.76 9.35V218c0 4 .67 6.9 2 8.68s3.72 3.68 7.18 5.68l.26.18a2.78 2.78 0 0 1-.11 4.79z"/><ellipse class="cls-4" cx="140.67" cy="218.59" rx="6.52" ry="14.23"/><path class="cls-2" d="M85.45 223.21a7.89 7.89 0 0 1 7.89-7.89h40.81"/><path class="cls-4" d="M166.33 149.34a24.49 24.49 0 0 0 3.84 2.5 51.12 51.12 0 0 1 5.43 3.84 10.23 10.23 0 0 1 2.75 4 18.86 18.86 0 0 1 1 6.84v30.57q0 6.51 3.76 9.36t12.61 2.83h31.12V89.54h-31.12q-8.85 0-12.61 2.84t-3.76 9.35v30.74c0 4-.66 6.9-2 8.68s-3.73 3.68-7.18 5.68z"/><path class="cls-4" d="M190.6 217.42h36.24V116.47H192c16.34 36.71-1.4 100.95-1.4 100.95z"/><path class="cls-4" d="M173.32 116.47c43 0 53.52 20.59 53.52 20.59V89.54h-40.57a19.94 19.94 0 0 0-19.94 19.94 7.39 7.39 0 0 0 6.99 6.99zm-96.8 32.87a25.46 25.46 0 0 1-3.84 2.5 51.12 51.12 0 0 0-5.43 3.84 10.15 10.15 0 0 0-2.76 4 18.86 18.86 0 0 0-1 6.84v30.57q0 6.51-3.76 9.36t-12.61 2.85H2V106.89a17.35 17.35 0 0 1 17.35-17.35h27.77q8.85 0 12.61 2.84t3.76 9.35v30.74c0 4 .67 6.9 2 8.68s3.72 3.68 7.18 5.68z"/><path class="cls-2" d="M33.76 89.54L33.76 209.3"/><path class="cls-2" d="M63.49 122.02L33.76 122.02"/><path class="cls-2" d="M63.49 135.78L33.76 135.78"/></g></g></svg>