<svg xmlns="http://www.w3.org/2000/svg" viewBox="0 0 130.99 113.52"><title>Door</title><g data-name="Livello 1" stroke="#000" stroke-linecap="round" stroke-miterlimit="10" stroke-width="4px"><path d="M44 100.77V44.48a42.49 42.49 0 0 1 85 0v56.29z" fill="#fff"/><path d="M86.51 15A29.48 29.48 0 0 1 116 44.48v56.29H57V44.48A29.48 29.48 0 0 1 86.51 15z"/><path transform="rotate(-180 91.87 94.61)" fill="#fff" d="M67.74 88.44H115.99V100.77H67.74z"/><path transform="rotate(-180 97.23 82.28)" fill="#fff" d="M78.47 76.11H116V88.44H78.47z"/><path transform="rotate(-180 102.59 69.95)" fill="#fff" d="M89.19 63.78H115.99V76.11H89.19z"/><path transform="rotate(-180 107.95 57.62)" fill="#fff" d="M99.91 51.45H115.99V63.78H99.91z"/><path d="M47.91 101.12L2 111V33.24c0-15.75 12-25.91 25.32-23C39.18 12.77 47.91 25 47.91 37.84z" fill="#fff"/></g></svg>