<svg xmlns="http://www.w3.org/2000/svg" viewBox="0 0 192.78 47.47"><title>Futuring logo</title><g data-name="Layer 1"><path d="M21.79 6.1v6.22H7.08v6.86h14v6.22h-14v12.44H0V6.1zM43 26.58V13.41h6.86v24.43H43v-3.22a7.72 7.72 0 0 1-6.56 3.58 9.54 9.54 0 0 1-6.74-2.52q-2.73-2.52-2.73-7.47v-14.8h6.86v13.31q0 5.63 4.13 5.63a4.9 4.9 0 0 0 3.54-1.48 5.74 5.74 0 0 0 1.5-4.29zm21.84-8.26v10.94a3.15 3.15 0 0 0 .72 2.2 2.27 2.27 0 0 0 1.73.79 3.93 3.93 0 0 0 3.22-1.72l2.55 4.77a9.9 9.9 0 0 1-6.7 2.9A8.12 8.12 0 0 1 58 29.58V18.32h-2.88v-4.91H58V6.1h6.86v7.31h5.89v4.91zm28.05 8.26V13.41h6.86v24.43h-6.86v-3.22a7.72 7.72 0 0 1-6.56 3.58 9.57 9.57 0 0 1-6.74-2.52c-1.82-1.68-2.72-4.17-2.72-7.47v-14.8h6.85v13.31q0 5.63 4.13 5.63a4.91 4.91 0 0 0 3.55-1.48 5.78 5.78 0 0 0 1.49-4.29zm26.61-7.17a5.17 5.17 0 0 0-4.5 2.15 9.81 9.81 0 0 0-1.5 5.7v10.58h-6.81V13.41h6.81v3.23a11.53 11.53 0 0 1 3.3-2.55 9 9 0 0 1 4-1.09v6.41z"/><path d="M125.76 13.41H132.57V37.84H125.76z"/><path d="M146.29 24.22v13.62h-6.81V13.41h6.81v2.73a9.54 9.54 0 0 1 7-3.14 8.6 8.6 0 0 1 6.47 2.73 10.06 10.06 0 0 1 2.6 7.26v14.85h-6.86V24c0-3.75-1.37-5.63-4.13-5.63a5 5 0 0 0-3.56 1.47 5.8 5.8 0 0 0-1.52 4.38zM187 33.71a10.37 10.37 0 0 1-8 3.58 11.07 11.07 0 0 1-8.08-3.24 11.65 11.65 0 0 1-3.29-8.67 12.19 12.19 0 0 1 3.38-8.9 10.53 10.53 0 0 1 7.74-3.48 8.87 8.87 0 0 1 7.25 3.59v-3.22h6.81v21.29a14.2 14.2 0 0 1-1.13 5.81 10 10 0 0 1-3.05 4 13.85 13.85 0 0 1-8.89 3 18.65 18.65 0 0 1-5.57-.89 15.83 15.83 0 0 1-5-2.52l2.64-5.13a11.59 11.59 0 0 0 7.1 2.54 8.85 8.85 0 0 0 5.93-1.86q2.16-1.86 2.16-5.9zm-1-8.61a6.31 6.31 0 0 0-1.63-4.6 5.42 5.42 0 0 0-4-1.68 5.8 5.8 0 0 0-4.16 1.68 6.07 6.07 0 0 0-1.74 4.58 6.51 6.51 0 0 0 1.7 4.7 5.49 5.49 0 0 0 4.15 1.8 5.34 5.34 0 0 0 4.09-1.78 6.64 6.64 0 0 0 1.65-4.7zM136.85.2a.41.41 0 0 0-.55-.15l-3.83 2.13a4.79 4.79 0 0 0-.46-.55 4 4 0 0 0-6.83 2.84 4 4 0 0 0 .31 1.59l-3.55 2a.4.4 0 0 0-.15.54.39.39 0 0 0 .34.21.46.46 0 0 0 .2 0l3.55-2a4 4 0 0 0 7.28-2.28 4.09 4.09 0 0 0-.3-1.59l3.83-2.19a.42.42 0 0 0 .16-.55z"/></g></svg>