<svg xmlns="http://www.w3.org/2000/svg" viewBox="0 0 1035.51 510.33"><title>Collettivo Hack</title><g data-name="Collettivo Hack - Square"><path d="M193.3 13.05a17.3 17.3 0 0 0-7.91-2 16.92 16.92 0 0 0-14.79 8.53 17.47 17.47 0 0 0-2.28 8.83 17.74 17.74 0 0 0 2.28 8.88 17 17 0 0 0 6.21 6.35 16.55 16.55 0 0 0 8.58 2.36 18.12 18.12 0 0 0 7.67-1.8 24.08 24.08 0 0 0 7-4.89l7.37 8.14a33.7 33.7 0 0 1-10.52 7.42 28.62 28.62 0 0 1-12 2.77A29.74 29.74 0 0 1 170 53.83a27.56 27.56 0 0 1-10.52-10.42 29 29 0 0 1-3.83-14.8A28 28 0 0 1 159.5 14a27.57 27.57 0 0 1 10.67-10.27A31 31 0 0 1 185.3 0a30.23 30.23 0 0 1 11.93 2.52 32 32 0 0 1 10.18 6.79L200 18.43a21 21 0 0 0-6.7-5.38zm85.53-9.32a27.87 27.87 0 0 1 14.7 24.88 28.52 28.52 0 0 1-3.93 14.8 28 28 0 0 1-10.77 10.42 32.68 32.68 0 0 1-30.55 0 28 28 0 0 1-10.77-10.42 28.52 28.52 0 0 1-3.93-14.8 27.87 27.87 0 0 1 14.7-24.88 33.14 33.14 0 0 1 30.55 0zm-23.76 9.65a17.5 17.5 0 0 0-6.4 6.36 17.07 17.07 0 0 0-2.38 8.87 18 18 0 0 0 8.78 15.48 16.81 16.81 0 0 0 8.68 2.37 16.15 16.15 0 0 0 8.49-2.37 17.28 17.28 0 0 0 6.21-6.46 18.23 18.23 0 0 0 2.28-9 17.78 17.78 0 0 0-2.28-8.87 17.08 17.08 0 0 0-6.21-6.36 16.38 16.38 0 0 0-8.49-2.32 17.06 17.06 0 0 0-8.68 2.3zM327 .78h12.52v44.71h24v11.16H327zm67 0h12.51v44.71h24v11.16H394zm67 0h42.49v10.57h-30v11.93h27v10.57h-27v12.32h30.85v10.48H461zm71.81 0h46.65v10.76h-17.08v45.11h-12.51V11.54H532.8zm73.35 0h46.66v10.76h-17.09v45.11h-12.51V11.54h-17.07zm107.11 10.57h-9.8v34.82h9.8v10.48h-32.11V46.17H691V11.35h-9.79V.78h32.11zM741.63.78H755l15.33 42.09L785.66.78h12.91l-22.12 55.87h-12.9zm126.1 3a27.88 27.88 0 0 1 14.69 24.88 28.52 28.52 0 0 1-3.93 14.8 28.06 28.06 0 0 1-10.76 10.42 32.7 32.7 0 0 1-30.56 0 28 28 0 0 1-10.77-10.47 28.52 28.52 0 0 1-3.93-14.8 27.87 27.87 0 0 1 14.7-24.88 33.16 33.16 0 0 1 30.56 0zM844 13.38a17.58 17.58 0 0 0-6.4 6.36 17.07 17.07 0 0 0-2.38 8.87A18 18 0 0 0 844 44.09a16.81 16.81 0 0 0 8.68 2.37 16.15 16.15 0 0 0 8.49-2.37 17.28 17.28 0 0 0 6.21-6.46 18.13 18.13 0 0 0 2.28-9 17.67 17.67 0 0 0-2.28-8.87 17.08 17.08 0 0 0-6.21-6.36 16.38 16.38 0 0 0-8.49-2.32 17.06 17.06 0 0 0-8.68 2.3zm-23.78 327.55l25.68 27.6a102.7 102.7 0 0 1-32.52 22.92Q794.54 400 776.06 400q-25 0-45.12-11.52A84.18 84.18 0 0 1 699.26 357q-11.52-19.92-11.52-44.64 0-24.48 11.76-44.16a84 84 0 0 1 32.28-31Q752.3 226 777.74 226a93.23 93.23 0 0 1 37 7.8 91.61 91.61 0 0 1 31 21.24l-25.44 30.72a62.72 62.72 0 0 0-19.44-16.44 46.53 46.53 0 0 0-22.32-6.12 43.65 43.65 0 0 0-23.16 6.36 45.06 45.06 0 0 0-16.44 17.52 54.42 54.42 0 0 0 0 49.68 45.06 45.06 0 0 0 16.44 17.52 43.65 43.65 0 0 0 23.16 6.36 50.94 50.94 0 0 0 21.6-5.28 68.46 68.46 0 0 0 20.08-14.43zm149-43.88l62.4-69.36H980.8l-63.13 73v-73h-43.92v168.24H880l37.63-41.75 21.13-23.52v.05L983 395.93h52.56zm-857.43-.72H43.92v-68.64H0v168.24h43.92v-64.56h67.92v64.56h43.92V227.69h-43.92zm196.31-68.4h43.17v168.24H307.4v-49.76h-67.17v49.76h-43.92V227.93h111.84zm-.75 84.88v-51.28h-67.12v51.28zm102.94-27.18a20.79 20.79 0 0 1 17.94-31.35 19.9 19.9 0 0 1 10.22 2.72 20.33 20.33 0 0 1 7.46 7.5 20.7 20.7 0 0 1 2.75 10.52 20.91 20.91 0 0 1-2.75 10.57 20.6 20.6 0 0 1-7.46 7.6 19.73 19.73 0 0 1-10.22 2.81 20.08 20.08 0 0 1-10.34-2.79 21.13 21.13 0 0 1-7.6-7.58zm230.14 25.47a69 69 0 0 1-10.54 6.9A139.42 139.42 0 0 0 615 328.5a27.68 27.68 0 0 0-7.56 11q-2.75 6.87-2.75 18.77v20.87h-27.62c-7.18 0-12.48-2.2-15.76-6.55-2.81-3.72-4.33-9.32-4.62-17.07H544v5.6c0 12.12 2 20.81 6.1 25.81 3.92 4.82 10.8 7.26 20.46 7.26h34.14v47.9q0 17.87-10.3 25.65t-34.58 7.78h-42.9q-3.76 14.18-13.35 22-15.81 12.81-52.45 12.82h-16v-34.82q24.27 0 34.58-7.78t10.3-25.65V397h-43q-15.92 0-22.66-8.31t-6.74-27.6v-8.43h18.31q0 12.76 4.1 18.19t13.5 5.43H480v-18q0-11.89 2.75-18.77a27.77 27.77 0 0 1 7.55-11A140.83 140.83 0 0 1 505.17 318a68.92 68.92 0 0 0 10.53-6.87l-10.53-6.87Q491 296 485.48 288.66T480 264.84v-84.27q0-17.87-10.31-25.65t-34.58-7.78v-34.81h16q36.64 0 52.45 13 9.51 7.85 13.29 21.76h43q24.27 0 34.58 7.78t10.3 25.65v84.27q0 16.49 5.5 23.82t19.69 15.57zm-61-36a17.78 17.78 0 0 0-8.82-15.58 17.06 17.06 0 0 0-8.78-2.37 17.8 17.8 0 0 0-9 2.38 18.06 18.06 0 0 0-6.52 24.69 18.36 18.36 0 0 0 6.6 6.59 17.49 17.49 0 0 0 17.67 0 18.09 18.09 0 0 0 8.83-15.72z"/></g></svg>