<svg xmlns="http://www.w3.org/2000/svg" viewBox="0 0 48 48" width="96" height="96"><path d="M18.7 13.766l.003.004a.98.98 0 0 1 .957-.77h13.473c.015 0 .031-.008.05-.008C32.896 8.215 28.888 6 25.353 6H11.879c-.477 0-.852.336-.957.777l-.004-.004-5.89 27.04h.015c-.016.066-.04.124-.04.195a.99.99 0 0 0 1 .992h8.071z" fill="#1565C0"/><path d="M33.184 12.992c.05.88-.004 1.832-.23 2.883-1.282 5.996-5.911 9.117-11.634 9.117h-4.312c-.524 0-.77.305-.883.54l-1.738 8.046-.305 1.43h-.008l-1.261 5.797h.011c-.011.066-.039.125-.039.195a1 1 0 0 0 1 1h7.332l.016-.012a.982.982 0 0 0 .945-.785l.016-.016 1.812-8.417s.125-.801.973-.801h4.176c5.722 0 10.402-3.106 11.683-9.102 1.442-6.762-3.379-9.847-7.554-9.875z" fill="#039BE5"/><path d="M19.66 13a.98.98 0 0 0-.957.77l-.004-.004-2.574 11.765a.918.918 0 0 1 .879-.539h4.234c5.727 0 10.434-3.12 11.715-9.113.227-1.055.281-2.008.23-2.883-.019-.004-.035.004-.05.004z" fill="#283593"/></svg>