<svg xmlns="http://www.w3.org/2000/svg" viewBox="0 0 48 48" width="96" height="96"><path d="M31.2 10.602l-6.598 2.296-1.403-4.296C22.602 6.8 23.5 4.8 25.4 4.199c1.8-.597 3.8.301 4.402 2.2zm-2 16l6.6-2.301-2.3-7.102-6.602 2.301zM32.601 36.8c.5 1.398 1.898 2.398 3.296 2.398.403 0 .801-.097 1.102-.199 1.8-.602 2.8-2.602 2.2-4.398L38 31l-6.602 2.3z" fill="#FFB300"/><path d="M17.2 15.5l-6.598 2.3-1.403-4.198C8.602 11.8 9.5 9.8 11.4 9.199c1.8-.597 3.8.301 4.402 2.2zm1.402 26.3c.5 1.4 1.898 2.4 3.296 2.4.403 0 .801-.098 1.102-.2 1.8-.602 2.8-2.602 2.2-4.398L24 35.898 17.398 38.2zm.796-19.6l-6.597 2.3 2.3 7.102L21.7 29.3z" fill="#00BFA5"/><path d="M33.398 17.3L31.2 10.7l4.102-1.4c1.8-.6 3.8.302 4.398 2.2.602 1.8-.3 3.8-2.199 4.398zm-6.597 2.302L24.6 13 17.2 15.602l2.2 6.597zM6.398 19.3c-1.796.597-2.796 2.597-2.199 4.398A3.514 3.514 0 0 0 7.5 26.102c.398 0 .8-.102 1.102-.204l4.097-1.398-2.199-6.602z" fill="#00BCD4"/><path d="M15.102 31.5l2.199 6.602-4.7 1.597c-.402.102-.8.2-1.101.2-1.5 0-2.8-.899-3.3-2.399-.598-1.8.3-3.8 2.198-4.398zm28.597-6.2c-.597-1.8-2.597-2.8-4.398-2.198L35.8 24.3 38 31l3.602-1.2c1.796-.698 2.796-2.698 2.097-4.5zm-22 3.9l2.2 6.6 7.402-2.6-2.2-6.598z" fill="#E91E63"/><path d="M33.398 17.3L31.2 10.603l-6.597 2.296 2.199 6.704z" fill="#388E3C"/><path d="M17.2 15.5l-6.598 2.3 2.199 6.7 6.597-2.3z" fill="#00897B"/><path d="M29.2 26.602l2.198 6.699L38 31l-2.2-6.7z" fill="#BF360C"/><path d="M15.102 31.5l2.199 6.7 6.597-2.302L21.7 29.2z" fill="#4E342E"/></svg>